<svg width="14" height="14" viewBox="0 0 14 14" fill="none" xmlns="http://www.w3.org/2000/svg">
<path fill-rule="evenodd" clip-rule="evenodd" d="M2.33325 1.66671C2.15644 1.66671 1.98687 1.73695 1.86185 1.86197C1.73682 1.98699 1.66659 2.15656 1.66659 2.33337V11.3906L3.19518 9.86197C3.32021 9.73695 3.48977 9.66671 3.66659 9.66671H11.6666C11.8434 9.66671 12.013 9.59647 12.138 9.47145C12.263 9.34642 12.3333 9.17685 12.3333 9.00004V2.33337C12.3333 2.15656 12.263 1.98699 12.138 1.86197C12.013 1.73695 11.8434 1.66671 11.6666 1.66671H2.33325ZM0.919038 0.91916C1.29411 0.544088 1.80282 0.333374 2.33325 0.333374H11.6666C12.197 0.333374 12.7057 0.544088 13.0808 0.91916C13.4559 1.29423 13.6666 1.80294 13.6666 2.33337V9.00004C13.6666 9.53047 13.4559 10.0392 13.0808 10.4143C12.7057 10.7893 12.197 11 11.6666 11H3.94273L1.47132 13.4714C1.28066 13.6621 0.993913 13.7191 0.744796 13.616C0.49568 13.5128 0.333252 13.2697 0.333252 13V2.33337C0.333252 1.80294 0.543966 1.29423 0.919038 0.91916Z" fill="#4894FF"/>
</svg>
